<mxfile host="app.diagrams.net" agent="Mozilla/5.0 (Windows NT 10.0; Win64; x64) AppleWebKit/537.36 (KHTML, like Gecko) Chrome/131.0.0.0 Safari/537.36" version="25.0.3">
  <diagram name="Page-1" id="XC-adGpRvNo3paOFk67x">
    <mxGraphModel dx="1358" dy="567" grid="1" gridSize="10" guides="1" tooltips="1" connect="1" arrows="1" fold="1" page="1" pageScale="1" pageWidth="850" pageHeight="1100" math="0" shadow="0">
      <root>
        <mxCell id="0" />
        <mxCell id="1" parent="0" />
        <mxCell id="ChuWUF5fecYC-K1OK_IN-2" value="write_truck_&lt;div&gt;to_eeprom&lt;/div&gt;" style="shape=process;whiteSpace=wrap;html=1;backgroundOutline=1;" vertex="1" parent="1">
          <mxGeometry x="360" y="120" width="120" height="40" as="geometry" />
        </mxCell>
        <mxCell id="ChuWUF5fecYC-K1OK_IN-3" value="Запись гос номера в EEPROM" style="shape=process;whiteSpace=wrap;html=1;backgroundOutline=1;" vertex="1" parent="1">
          <mxGeometry x="360" y="190" width="120" height="50" as="geometry" />
        </mxCell>
        <mxCell id="ChuWUF5fecYC-K1OK_IN-4" value="Запись массы без груза в EEPROM" style="shape=process;whiteSpace=wrap;html=1;backgroundOutline=1;" vertex="1" parent="1">
          <mxGeometry x="360" y="270" width="120" height="50" as="geometry" />
        </mxCell>
        <mxCell id="ChuWUF5fecYC-K1OK_IN-5" value="Запись массы с грузом в EEPROM" style="shape=process;whiteSpace=wrap;html=1;backgroundOutline=1;" vertex="1" parent="1">
          <mxGeometry x="360" y="350" width="120" height="50" as="geometry" />
        </mxCell>
        <mxCell id="ChuWUF5fecYC-K1OK_IN-6" value="return" style="rounded=1;whiteSpace=wrap;html=1;" vertex="1" parent="1">
          <mxGeometry x="360" y="430" width="120" height="40" as="geometry" />
        </mxCell>
        <mxCell id="ChuWUF5fecYC-K1OK_IN-7" value="" style="endArrow=none;html=1;rounded=0;entryX=0.5;entryY=1;entryDx=0;entryDy=0;exitX=0.5;exitY=0;exitDx=0;exitDy=0;" edge="1" parent="1" source="ChuWUF5fecYC-K1OK_IN-3" target="ChuWUF5fecYC-K1OK_IN-2">
          <mxGeometry width="50" height="50" relative="1" as="geometry">
            <mxPoint x="390" y="340" as="sourcePoint" />
            <mxPoint x="440" y="290" as="targetPoint" />
          </mxGeometry>
        </mxCell>
        <mxCell id="ChuWUF5fecYC-K1OK_IN-8" value="" style="endArrow=none;html=1;rounded=0;entryX=0.5;entryY=1;entryDx=0;entryDy=0;exitX=0.5;exitY=0;exitDx=0;exitDy=0;" edge="1" parent="1">
          <mxGeometry width="50" height="50" relative="1" as="geometry">
            <mxPoint x="419.71" y="270" as="sourcePoint" />
            <mxPoint x="419.71" y="240" as="targetPoint" />
          </mxGeometry>
        </mxCell>
        <mxCell id="ChuWUF5fecYC-K1OK_IN-9" value="" style="endArrow=none;html=1;rounded=0;entryX=0.5;entryY=1;entryDx=0;entryDy=0;exitX=0.5;exitY=0;exitDx=0;exitDy=0;" edge="1" parent="1">
          <mxGeometry width="50" height="50" relative="1" as="geometry">
            <mxPoint x="419.71" y="350" as="sourcePoint" />
            <mxPoint x="419.71" y="320" as="targetPoint" />
          </mxGeometry>
        </mxCell>
        <mxCell id="ChuWUF5fecYC-K1OK_IN-10" value="" style="endArrow=none;html=1;rounded=0;entryX=0.5;entryY=1;entryDx=0;entryDy=0;exitX=0.5;exitY=0;exitDx=0;exitDy=0;" edge="1" parent="1">
          <mxGeometry width="50" height="50" relative="1" as="geometry">
            <mxPoint x="419.71" y="430" as="sourcePoint" />
            <mxPoint x="419.71" y="400" as="targetPoint" />
          </mxGeometry>
        </mxCell>
        <mxCell id="ChuWUF5fecYC-K1OK_IN-11" value="write_all_trucks_&lt;div&gt;to_eeprom&lt;/div&gt;" style="shape=process;whiteSpace=wrap;html=1;backgroundOutline=1;" vertex="1" parent="1">
          <mxGeometry x="560" y="120" width="120" height="40" as="geometry" />
        </mxCell>
        <mxCell id="ChuWUF5fecYC-K1OK_IN-12" value="Итерация по количеству транспортов" style="shape=hexagon;perimeter=hexagonPerimeter2;whiteSpace=wrap;html=1;fixedSize=1;" vertex="1" parent="1">
          <mxGeometry x="560" y="200" width="120" height="50" as="geometry" />
        </mxCell>
        <mxCell id="ChuWUF5fecYC-K1OK_IN-13" value="write_truck_&lt;div&gt;to_eeprom&lt;/div&gt;" style="shape=process;whiteSpace=wrap;html=1;backgroundOutline=1;" vertex="1" parent="1">
          <mxGeometry x="560" y="290" width="120" height="40" as="geometry" />
        </mxCell>
        <mxCell id="ChuWUF5fecYC-K1OK_IN-14" value="" style="endArrow=none;html=1;rounded=0;entryX=0.5;entryY=1;entryDx=0;entryDy=0;exitX=0.5;exitY=0;exitDx=0;exitDy=0;" edge="1" parent="1" source="ChuWUF5fecYC-K1OK_IN-12" target="ChuWUF5fecYC-K1OK_IN-11">
          <mxGeometry width="50" height="50" relative="1" as="geometry">
            <mxPoint x="630" y="290" as="sourcePoint" />
            <mxPoint x="680" y="240" as="targetPoint" />
          </mxGeometry>
        </mxCell>
        <mxCell id="ChuWUF5fecYC-K1OK_IN-15" value="" style="endArrow=none;html=1;rounded=0;entryX=0.5;entryY=1;entryDx=0;entryDy=0;exitX=0.5;exitY=0;exitDx=0;exitDy=0;" edge="1" parent="1">
          <mxGeometry width="50" height="50" relative="1" as="geometry">
            <mxPoint x="619.76" y="290" as="sourcePoint" />
            <mxPoint x="619.76" y="250" as="targetPoint" />
          </mxGeometry>
        </mxCell>
        <mxCell id="ChuWUF5fecYC-K1OK_IN-16" value="return" style="rounded=1;whiteSpace=wrap;html=1;" vertex="1" parent="1">
          <mxGeometry x="560" y="390" width="120" height="40" as="geometry" />
        </mxCell>
        <mxCell id="ChuWUF5fecYC-K1OK_IN-17" value="" style="endArrow=classic;html=1;rounded=0;exitX=0.5;exitY=1;exitDx=0;exitDy=0;entryX=0;entryY=0.5;entryDx=0;entryDy=0;" edge="1" parent="1" source="ChuWUF5fecYC-K1OK_IN-13" target="ChuWUF5fecYC-K1OK_IN-12">
          <mxGeometry width="50" height="50" relative="1" as="geometry">
            <mxPoint x="570" y="350" as="sourcePoint" />
            <mxPoint x="620" y="300" as="targetPoint" />
            <Array as="points">
              <mxPoint x="620" y="350" />
              <mxPoint x="540" y="350" />
              <mxPoint x="540" y="225" />
            </Array>
          </mxGeometry>
        </mxCell>
        <mxCell id="ChuWUF5fecYC-K1OK_IN-18" value="" style="endArrow=none;html=1;rounded=0;entryX=1;entryY=0.5;entryDx=0;entryDy=0;exitX=0.5;exitY=0;exitDx=0;exitDy=0;" edge="1" parent="1" source="ChuWUF5fecYC-K1OK_IN-16" target="ChuWUF5fecYC-K1OK_IN-12">
          <mxGeometry width="50" height="50" relative="1" as="geometry">
            <mxPoint x="570" y="350" as="sourcePoint" />
            <mxPoint x="620" y="300" as="targetPoint" />
            <Array as="points">
              <mxPoint x="620" y="370" />
              <mxPoint x="710" y="370" />
              <mxPoint x="710" y="225" />
            </Array>
          </mxGeometry>
        </mxCell>
        <mxCell id="ChuWUF5fecYC-K1OK_IN-19" value="read_truck_&lt;div&gt;from_eeprom&lt;/div&gt;" style="shape=process;whiteSpace=wrap;html=1;backgroundOutline=1;" vertex="1" parent="1">
          <mxGeometry x="360" y="520" width="120" height="40" as="geometry" />
        </mxCell>
        <mxCell id="ChuWUF5fecYC-K1OK_IN-20" value="Чтение гос номера из EEPROM" style="shape=process;whiteSpace=wrap;html=1;backgroundOutline=1;" vertex="1" parent="1">
          <mxGeometry x="360" y="590" width="120" height="50" as="geometry" />
        </mxCell>
        <mxCell id="ChuWUF5fecYC-K1OK_IN-21" value="Чтение массы без груза из EEPROM" style="shape=process;whiteSpace=wrap;html=1;backgroundOutline=1;" vertex="1" parent="1">
          <mxGeometry x="360" y="670" width="120" height="50" as="geometry" />
        </mxCell>
        <mxCell id="ChuWUF5fecYC-K1OK_IN-22" value="Чтение массы с грузом из EEPROM" style="shape=process;whiteSpace=wrap;html=1;backgroundOutline=1;" vertex="1" parent="1">
          <mxGeometry x="360" y="750" width="120" height="50" as="geometry" />
        </mxCell>
        <mxCell id="ChuWUF5fecYC-K1OK_IN-23" value="return" style="rounded=1;whiteSpace=wrap;html=1;" vertex="1" parent="1">
          <mxGeometry x="360" y="830" width="120" height="40" as="geometry" />
        </mxCell>
        <mxCell id="ChuWUF5fecYC-K1OK_IN-24" value="" style="endArrow=none;html=1;rounded=0;entryX=0.5;entryY=1;entryDx=0;entryDy=0;exitX=0.5;exitY=0;exitDx=0;exitDy=0;" edge="1" parent="1" source="ChuWUF5fecYC-K1OK_IN-20" target="ChuWUF5fecYC-K1OK_IN-19">
          <mxGeometry width="50" height="50" relative="1" as="geometry">
            <mxPoint x="390" y="740" as="sourcePoint" />
            <mxPoint x="440" y="690" as="targetPoint" />
          </mxGeometry>
        </mxCell>
        <mxCell id="ChuWUF5fecYC-K1OK_IN-25" value="" style="endArrow=none;html=1;rounded=0;entryX=0.5;entryY=1;entryDx=0;entryDy=0;exitX=0.5;exitY=0;exitDx=0;exitDy=0;" edge="1" parent="1">
          <mxGeometry width="50" height="50" relative="1" as="geometry">
            <mxPoint x="419.71" y="670" as="sourcePoint" />
            <mxPoint x="419.71" y="640" as="targetPoint" />
          </mxGeometry>
        </mxCell>
        <mxCell id="ChuWUF5fecYC-K1OK_IN-26" value="" style="endArrow=none;html=1;rounded=0;entryX=0.5;entryY=1;entryDx=0;entryDy=0;exitX=0.5;exitY=0;exitDx=0;exitDy=0;" edge="1" parent="1">
          <mxGeometry width="50" height="50" relative="1" as="geometry">
            <mxPoint x="419.71" y="750" as="sourcePoint" />
            <mxPoint x="419.71" y="720" as="targetPoint" />
          </mxGeometry>
        </mxCell>
        <mxCell id="ChuWUF5fecYC-K1OK_IN-27" value="" style="endArrow=none;html=1;rounded=0;entryX=0.5;entryY=1;entryDx=0;entryDy=0;exitX=0.5;exitY=0;exitDx=0;exitDy=0;" edge="1" parent="1">
          <mxGeometry width="50" height="50" relative="1" as="geometry">
            <mxPoint x="419.71" y="830" as="sourcePoint" />
            <mxPoint x="419.71" y="800" as="targetPoint" />
          </mxGeometry>
        </mxCell>
        <mxCell id="ChuWUF5fecYC-K1OK_IN-28" value="read_all_trucks_&lt;div&gt;from_eeprom&lt;/div&gt;" style="shape=process;whiteSpace=wrap;html=1;backgroundOutline=1;" vertex="1" parent="1">
          <mxGeometry x="550" y="520" width="120" height="40" as="geometry" />
        </mxCell>
        <mxCell id="ChuWUF5fecYC-K1OK_IN-29" value="Итерация по количеству транспортов" style="shape=hexagon;perimeter=hexagonPerimeter2;whiteSpace=wrap;html=1;fixedSize=1;" vertex="1" parent="1">
          <mxGeometry x="550" y="600" width="120" height="50" as="geometry" />
        </mxCell>
        <mxCell id="ChuWUF5fecYC-K1OK_IN-30" value="read_truck_&lt;div&gt;from_eeprom&lt;/div&gt;" style="shape=process;whiteSpace=wrap;html=1;backgroundOutline=1;" vertex="1" parent="1">
          <mxGeometry x="550" y="690" width="120" height="40" as="geometry" />
        </mxCell>
        <mxCell id="ChuWUF5fecYC-K1OK_IN-31" value="" style="endArrow=none;html=1;rounded=0;entryX=0.5;entryY=1;entryDx=0;entryDy=0;exitX=0.5;exitY=0;exitDx=0;exitDy=0;" edge="1" parent="1" source="ChuWUF5fecYC-K1OK_IN-29" target="ChuWUF5fecYC-K1OK_IN-28">
          <mxGeometry width="50" height="50" relative="1" as="geometry">
            <mxPoint x="620" y="690" as="sourcePoint" />
            <mxPoint x="670" y="640" as="targetPoint" />
          </mxGeometry>
        </mxCell>
        <mxCell id="ChuWUF5fecYC-K1OK_IN-32" value="" style="endArrow=none;html=1;rounded=0;entryX=0.5;entryY=1;entryDx=0;entryDy=0;exitX=0.5;exitY=0;exitDx=0;exitDy=0;" edge="1" parent="1">
          <mxGeometry width="50" height="50" relative="1" as="geometry">
            <mxPoint x="609.76" y="690" as="sourcePoint" />
            <mxPoint x="609.76" y="650" as="targetPoint" />
          </mxGeometry>
        </mxCell>
        <mxCell id="ChuWUF5fecYC-K1OK_IN-33" value="return" style="rounded=1;whiteSpace=wrap;html=1;" vertex="1" parent="1">
          <mxGeometry x="550" y="790" width="120" height="40" as="geometry" />
        </mxCell>
        <mxCell id="ChuWUF5fecYC-K1OK_IN-34" value="" style="endArrow=classic;html=1;rounded=0;exitX=0.5;exitY=1;exitDx=0;exitDy=0;entryX=0;entryY=0.5;entryDx=0;entryDy=0;" edge="1" parent="1" source="ChuWUF5fecYC-K1OK_IN-30" target="ChuWUF5fecYC-K1OK_IN-29">
          <mxGeometry width="50" height="50" relative="1" as="geometry">
            <mxPoint x="560" y="750" as="sourcePoint" />
            <mxPoint x="610" y="700" as="targetPoint" />
            <Array as="points">
              <mxPoint x="610" y="750" />
              <mxPoint x="530" y="750" />
              <mxPoint x="530" y="625" />
            </Array>
          </mxGeometry>
        </mxCell>
        <mxCell id="ChuWUF5fecYC-K1OK_IN-35" value="" style="endArrow=none;html=1;rounded=0;entryX=1;entryY=0.5;entryDx=0;entryDy=0;exitX=0.5;exitY=0;exitDx=0;exitDy=0;" edge="1" parent="1" source="ChuWUF5fecYC-K1OK_IN-33" target="ChuWUF5fecYC-K1OK_IN-29">
          <mxGeometry width="50" height="50" relative="1" as="geometry">
            <mxPoint x="560" y="750" as="sourcePoint" />
            <mxPoint x="610" y="700" as="targetPoint" />
            <Array as="points">
              <mxPoint x="610" y="770" />
              <mxPoint x="700" y="770" />
              <mxPoint x="700" y="625" />
            </Array>
          </mxGeometry>
        </mxCell>
      </root>
    </mxGraphModel>
  </diagram>
</mxfile>
